<?xml version="1.0" encoding="UTF-8" standalone="no"?>
<!DOCTYPE svg PUBLIC "-//W3C//DTD SVG 1.1//EN"
 "http://www.w3.org/Graphics/SVG/1.1/DTD/svg11.dtd">
<!-- Generated by graphviz version 2.38.0 (20140413.2041)
 -->
<!-- Title: files needed in the process of caffe transfer learning Pages: 1 -->
<svg width="624pt" height="587pt"
 viewBox="0.00 0.00 623.74 587.00" xmlns="http://www.w3.org/2000/svg" xmlns:xlink="http://www.w3.org/1999/xlink">
<g id="graph0" class="graph" transform="scale(1 1) rotate(0) translate(4 583)">
<title>files needed in the process of caffe transfer learning</title>
<polygon fill="white" stroke="none" points="-4,4 -4,-583 619.743,-583 619.743,4 -4,4"/>
<!-- pics -->
<g id="node1" class="node"><title>pics</title>
<polygon fill="#e0e0e0" stroke="black" points="329.146,-579 326.146,-583 305.146,-583 302.146,-579 275.146,-579 275.146,-543 329.146,-543 329.146,-579"/>
<text text-anchor="middle" x="302.146" y="-557.3" font-family="Times,serif" font-size="14.00">*.jpg</text>
</g>
<!-- lmdb -->
<g id="node5" class="node"><title>lmdb</title>
<polygon fill="#e0e0e0" stroke="black" points="333.146,-492 330.146,-496 309.146,-496 306.146,-492 279.146,-492 279.146,-456 333.146,-456 333.146,-492"/>
<text text-anchor="middle" x="306.146" y="-470.3" font-family="Times,serif" font-size="14.00">*.mdb</text>
</g>
<!-- pics&#45;&gt;lmdb -->
<g id="edge1" class="edge"><title>pics&#45;&gt;lmdb</title>
<path fill="none" stroke="black" d="M302.211,-542.866C302.318,-533.208 302.569,-520.924 303.146,-510 303.281,-507.442 303.452,-504.781 303.645,-502.121"/>
<polygon fill="black" stroke="black" points="307.14,-502.324 304.457,-492.074 300.162,-501.76 307.14,-502.324"/>
<text text-anchor="middle" x="338.146" y="-513.8" font-family="Times,serif" font-size="14.00">pic2lmdb.py</text>
</g>
<!-- mean_bpt -->
<g id="node2" class="node"><title>mean_bpt</title>
<ellipse fill="none" stroke="black" cx="171.146" cy="-387" rx="73.387" ry="18"/>
<text text-anchor="middle" x="171.146" y="-383.3" font-family="Times,serif" font-size="14.00">mean.binaryproto</text>
</g>
<!-- mean_npy -->
<g id="node3" class="node"><title>mean_npy</title>
<ellipse fill="none" stroke="black" cx="46.1459" cy="-246" rx="46.2923" ry="18"/>
<text text-anchor="middle" x="46.1459" y="-242.3" font-family="Times,serif" font-size="14.00">mean.npy</text>
</g>
<!-- mean_bpt&#45;&gt;mean_npy -->
<g id="edge7" class="edge"><title>mean_bpt&#45;&gt;mean_npy</title>
<path fill="none" stroke="black" d="M156.068,-369.233C134.083,-344.786 93.1058,-299.219 67.8691,-271.156"/>
<polygon fill="black" stroke="black" points="70.1783,-268.49 60.8891,-263.394 64.9734,-273.17 70.1783,-268.49"/>
<text text-anchor="middle" x="171.146" y="-339.8" font-family="Times,serif" font-size="14.00">bpt2npy.py</text>
</g>
<!-- mod_train -->
<g id="node6" class="node"><title>mod_train</title>
<polygon fill="#c0ffff" stroke="black" points="355.146,-318 267.146,-318 267.146,-282 355.146,-282 355.146,-318"/>
<text text-anchor="middle" x="311.146" y="-296.3" font-family="Times,serif" font-size="14.00">train.prototxt</text>
</g>
<!-- mean_bpt&#45;&gt;mod_train -->
<g id="edge5" class="edge"><title>mean_bpt&#45;&gt;mod_train</title>
<path fill="none" stroke="black" stroke-dasharray="5,2" d="M190.955,-369.616C203.929,-359.295 221.506,-346.067 238.146,-336 245.835,-331.348 254.236,-326.837 262.515,-322.686"/>
<polygon fill="black" stroke="black" points="264.319,-325.7 271.766,-318.164 261.245,-319.411 264.319,-325.7"/>
<text text-anchor="middle" x="267.646" y="-339.8" font-family="Times,serif" font-size="14.00">mean_file:</text>
</g>
<!-- result -->
<g id="node12" class="node"><title>result</title>
<ellipse fill="none" stroke="black" cx="412.146" cy="-18" rx="64.9885" ry="18"/>
<text text-anchor="middle" x="412.146" y="-14.3" font-family="Times,serif" font-size="14.00">result.{csv,txt}</text>
</g>
<!-- mean_npy&#45;&gt;result -->
<g id="edge10" class="edge"><title>mean_npy&#45;&gt;result</title>
<path fill="none" stroke="black" d="M42.2268,-227.997C39.6792,-212.585 38.5423,-189.914 49.1459,-174 114.57,-75.811 256.2,-39.5854 341.928,-26.3898"/>
<polygon fill="black" stroke="black" points="342.458,-29.8496 351.84,-24.9283 341.437,-22.9245 342.458,-29.8496"/>
</g>
<!-- wnid -->
<g id="node4" class="node"><title>wnid</title>
<polygon fill="#c0ffff" stroke="black" points="430.146,-579 368.146,-579 368.146,-543 430.146,-543 430.146,-579"/>
<text text-anchor="middle" x="399.146" y="-557.3" font-family="Times,serif" font-size="14.00">wnid.txt</text>
</g>
<!-- wnid&#45;&gt;lmdb -->
<g id="edge2" class="edge"><title>wnid&#45;&gt;lmdb</title>
<path fill="none" stroke="black" d="M393.177,-542.605C388.897,-532.149 382.27,-519.141 373.146,-510 364.541,-501.379 353.369,-494.409 342.622,-489.025"/>
<polygon fill="black" stroke="black" points="343.905,-485.761 333.363,-484.701 340.943,-492.104 343.905,-485.761"/>
</g>
<!-- wnid&#45;&gt;result -->
<g id="edge11" class="edge"><title>wnid&#45;&gt;result</title>
<path fill="none" stroke="black" d="M403.331,-542.861C407.131,-525.777 412.146,-498.736 412.146,-475 412.146,-475 412.146,-475 412.146,-104 412.146,-84.7526 412.146,-63.0535 412.146,-46.3973"/>
<polygon fill="black" stroke="black" points="415.646,-46.2564 412.146,-36.2564 408.646,-46.2565 415.646,-46.2564"/>
</g>
<!-- lmdb&#45;&gt;mean_bpt -->
<g id="edge3" class="edge"><title>lmdb&#45;&gt;mean_bpt</title>
<path fill="none" stroke="black" d="M278.905,-469.75C243.67,-464.928 185.246,-454.616 172.146,-438 167.137,-431.648 165.642,-423.296 165.766,-415.242"/>
<polygon fill="black" stroke="black" points="169.276,-415.296 166.703,-405.019 162.305,-414.658 169.276,-415.296"/>
<text text-anchor="middle" x="234.646" y="-426.8" font-family="Times,serif" font-size="14.00">compute_image_mean</text>
</g>
<!-- lmdb&#45;&gt;mod_train -->
<g id="edge6" class="edge"><title>lmdb&#45;&gt;mod_train</title>
<path fill="none" stroke="black" stroke-dasharray="5,2" d="M306.644,-455.879C307.512,-426.001 309.311,-364.113 310.353,-328.274"/>
<polygon fill="black" stroke="black" points="313.858,-328.149 310.65,-318.052 306.861,-327.946 313.858,-328.149"/>
<text text-anchor="middle" x="329.146" y="-383.3" font-family="Times,serif" font-size="14.00">source:</text>
</g>
<!-- mod_solver -->
<g id="node7" class="node"><title>mod_solver</title>
<polygon fill="#c0ffff" stroke="black" points="384.146,-210 288.146,-210 288.146,-174 384.146,-174 384.146,-210"/>
<text text-anchor="middle" x="336.146" y="-188.3" font-family="Times,serif" font-size="14.00">solver.prototxt</text>
</g>
<!-- mod_train&#45;&gt;mod_solver -->
<g id="edge4" class="edge"><title>mod_train&#45;&gt;mod_solver</title>
<path fill="none" stroke="black" stroke-dasharray="5,2" d="M315.163,-281.969C319.094,-265.301 325.144,-239.646 329.74,-220.161"/>
<polygon fill="black" stroke="black" points="333.167,-220.877 332.056,-210.341 326.354,-219.27 333.167,-220.877"/>
<text text-anchor="middle" x="338.646" y="-242.3" font-family="Times,serif" font-size="14.00">net:</text>
</g>
<!-- weights_ape -->
<g id="node10" class="node"><title>weights_ape</title>
<polygon fill="#ffc080" stroke="black" points="384.146,-123 248.146,-123 244.146,-119 244.146,-87 380.146,-87 384.146,-91 384.146,-123"/>
<polyline fill="none" stroke="black" points="380.146,-119 244.146,-119 "/>
<polyline fill="none" stroke="black" points="380.146,-119 380.146,-87 "/>
<polyline fill="none" stroke="black" points="380.146,-119 384.146,-123 "/>
<text text-anchor="middle" x="314.146" y="-101.3" font-family="Times,serif" font-size="14.00">_iter_4000.caffemodel</text>
</g>
<!-- mod_solver&#45;&gt;weights_ape -->
<g id="edge8" class="edge"><title>mod_solver&#45;&gt;weights_ape</title>
<path fill="none" stroke="black" d="M331.694,-173.799C328.682,-162.163 324.641,-146.548 321.195,-133.237"/>
<polygon fill="black" stroke="black" points="324.485,-131.979 318.591,-123.175 317.709,-133.733 324.485,-131.979"/>
</g>
<!-- mod_deploy -->
<g id="node8" class="node"><title>mod_deploy</title>
<polygon fill="#c0ffff" stroke="black" points="540.146,-123 440.146,-123 440.146,-87 540.146,-87 540.146,-123"/>
<text text-anchor="middle" x="490.146" y="-101.3" font-family="Times,serif" font-size="14.00">deploy.prototxt</text>
</g>
<!-- mod_deploy&#45;&gt;result -->
<g id="edge12" class="edge"><title>mod_deploy&#45;&gt;result</title>
<path fill="none" stroke="black" d="M474.361,-86.799C462.9,-74.3091 447.233,-57.236 434.488,-43.3475"/>
<polygon fill="black" stroke="black" points="436.716,-40.5985 427.376,-35.597 431.558,-45.3313 436.716,-40.5985"/>
</g>
<!-- weights_orig -->
<g id="node9" class="node"><title>weights_orig</title>
<polygon fill="#ffc080" stroke="black" points="270.146,-210 62.1459,-210 58.1459,-206 58.1459,-174 266.146,-174 270.146,-178 270.146,-210"/>
<polyline fill="none" stroke="black" points="266.146,-206 58.1459,-206 "/>
<polyline fill="none" stroke="black" points="266.146,-206 266.146,-174 "/>
<polyline fill="none" stroke="black" points="266.146,-206 270.146,-210 "/>
<text text-anchor="middle" x="164.146" y="-188.3" font-family="Times,serif" font-size="14.00">bvlc_reference_caffenet.caffemodel</text>
</g>
<!-- weights_orig&#45;&gt;weights_ape -->
<g id="edge9" class="edge"><title>weights_orig&#45;&gt;weights_ape</title>
<path fill="none" stroke="black" d="M194.501,-173.799C217.755,-160.622 250.012,-142.343 275.173,-128.084"/>
<polygon fill="black" stroke="black" points="277.118,-131.005 284.093,-123.03 273.667,-124.915 277.118,-131.005"/>
<text text-anchor="middle" x="262.146" y="-144.8" font-family="Times,serif" font-size="14.00">caffe</text>
</g>
<!-- weights_ape&#45;&gt;result -->
<g id="edge13" class="edge"><title>weights_ape&#45;&gt;result</title>
<path fill="none" stroke="black" d="M333.978,-86.799C348.878,-73.8755 369.435,-56.0451 385.729,-41.913"/>
<polygon fill="black" stroke="black" points="388.08,-44.5066 393.341,-35.3103 383.493,-39.2185 388.08,-44.5066"/>
</g>
<!-- test_pics -->
<g id="node11" class="node"><title>test_pics</title>
<ellipse fill="none" stroke="black" cx="587.146" cy="-105" rx="28.6953" ry="18"/>
<text text-anchor="middle" x="587.146" y="-101.3" font-family="Times,serif" font-size="14.00">*.jpg</text>
</g>
<!-- test_pics&#45;&gt;result -->
<g id="edge14" class="edge"><title>test_pics&#45;&gt;result</title>
<path fill="none" stroke="black" d="M564.982,-93.2347C536.614,-79.456 486.96,-55.3381 451.96,-38.3384"/>
<polygon fill="black" stroke="black" points="453.479,-35.1849 442.954,-33.964 450.42,-41.4814 453.479,-35.1849"/>
<text text-anchor="middle" x="546.146" y="-57.8" font-family="Times,serif" font-size="14.00">cnclassify.py</text>
</g>
</g>
</svg>
